<svg width="457" height="404" viewBox="0 0 457 404" fill="none" xmlns="http://www.w3.org/2000/svg">
<path d="M115.075 124.143L150.804 85.1863L190.005 83.7539L219.5 100.5L295.483 75.1794L306.689 108.576L239.562 174.261L300.155 205.431L211 213L145.297 272.074L115.075 124.143Z" fill="#FFDD5C"/>
<path d="M115.004 124.27L152.264 135.169L216.644 306.095L182.069 295.063L160.388 330.923L126.609 295.581L103.131 329.211L81.5831 302.543L62.7915 321.09L115.004 124.27Z" fill="#F7B731"/>
<path d="M197.974 114.712C197.209 120.437 191.947 124.458 186.222 123.693C180.497 122.927 176.476 117.665 177.242 111.94C178.007 106.215 183.269 102.195 188.994 102.96C194.719 103.726 198.74 108.987 197.974 114.712Z" fill="white"/>
<path d="M389.871 65.6362L405.415 85.0754L334.273 129.106L329.364 122.967L389.871 65.6362Z" fill="white"/>
<path d="M411.773 141.93L412.922 167.111L339.372 160.284L339.009 152.332L411.773 141.93Z" fill="white"/>
<path d="M405.866 215.125L392.157 241.037L329.213 194.353L333.543 186.17L405.866 215.125Z" fill="white"/>
</svg>
